Coordinates
version=1
nRows=7
nColumns=40
inDegrees=yes

Units are S.I. units (second, meters, Newtons, ...)
Angles are in degrees.

endheader
time	pelvis_tilt	pelvis_list	pelvis_rotation	pelvis_tx	pelvis_ty	pelvis_tz	hip_flexion_r	hip_adduction_r	hip_rotation_r	knee_angle_r	knee_angle_r_beta	ankle_angle_r	subtalar_angle_r	mtp_angle_r	hip_flexion_l	hip_adduction_l	hip_rotation_l	knee_angle_l	knee_angle_l_beta	ankle_angle_l	subtalar_angle_l	mtp_angle_l	lumbar_extension	lumbar_bending	lumbar_rotation	arm_flex_r	arm_add_r	arm_rot_r	elbow_flex_r	pro_sup_r	wrist_flex_r	wrist_dev_r	arm_flex_l	arm_add_l	arm_rot_l	elbow_flex_l	pro_sup_l	wrist_flex_l	wrist_dev_l
     10.01392857	     -4.17551348	     -4.84472950	     -9.00287918	      1.00976661	      0.92552892	      0.46524218	     26.06267375	     -0.55438273	     -7.32815994	     29.53776744	     29.53776744	      6.35529267	    -10.69995366	     -1.01124193	      4.54359609	     -3.90018350	    -11.02897594	     20.06859479	     20.06859479	     20.52038622	    -15.86459257	      5.24055750	    -10.44156574	      8.43665878	      1.58319236	    -13.93951137	    -11.53513825	    -18.10754824	     25.40656089	     46.77204320	      0.00000000	      0.00000000	     26.05984381	    -19.19935033	     -7.07120253	     72.69001431	     47.47874347	      0.00000000	      0.00000000
     10.03285714	     -4.43311682	     -4.93003258	     -9.49215429	      1.00986636	      0.92501560	      0.46919247	     25.65221599	      0.00409910	     -7.47559403	     25.55871901	     25.55871901	      6.11167409	     -7.42694549	     -0.52077418	      3.86148696	     -4.15397671	    -11.54593058	     19.27594045	     19.27594045	     20.60613999	    -15.60523037	      5.07765686	    -10.33747355	      8.49673420	      1.63717822	    -14.93182788	    -11.56089667	    -18.18076936	     25.42625688	     46.76621904	      0.00000000	      0.00000000	     27.19656892	    -19.66509663	     -7.40554799	     73.88081658	     47.53421177	      0.00000000	      0.00000000
     10.05178571	     -4.50609699	     -4.85767050	     -9.91884010	      1.01034212	      0.92421134	      0.47315060	     25.33819356	      0.14390212	     -8.14249275	     22.71134056	     22.71134056	      6.37489592	     -3.22163993	      0.78738173	      2.95534860	     -4.20806557	    -12.17475741	     18.40499341	     18.40499341	     20.30862800	    -15.29834487	      3.77733192	    -10.48466132	      8.38673338	      1.58325841	    -16.19407635	    -11.58928638	    -18.47372964	     27.11691464	     46.68990132	      0.00000000	      0.00000000	     27.96486386	    -20.23926780	     -8.23902278	     76.24321029	     47.66347474	      0.00000000	      0.00000000
     10.07071429	     -4.65847943	     -4.85897903	    -10.32235687	      1.01109295	      0.92317720	      0.47749547	     25.08458492	      0.52592390	     -8.32667383	     20.33787891	     20.33787891	      6.02734780	     -0.62835078	      1.34216053	      2.20264493	     -4.36873085	    -12.65887418	     17.75595313	     17.75595313	     20.48274114	    -15.04255093	      3.60122590	    -10.42270070	      8.37042310	      1.73192987	    -16.69749739	    -11.60675916	    -18.49548599	     27.10734568	     46.68528371	      0.00000000	      0.00000000	     29.13591674	    -20.56337028	     -8.50284933	     77.20297394	     47.71029142	      0.00000000	      0.00000000
     10.08964286	     -4.71882257	     -4.83487726	    -10.66375689	      1.01222996	      0.92207997	      0.48196066	     24.92117781	      0.74955781	     -8.79893556	     18.94266541	     18.94266541	      5.81293405	      1.85057654	      1.65227589	      1.34485489	     -4.49922625	    -13.17852020	     17.13665447	     17.13665447	     20.65836808	    -14.65642978	      3.28794367	    -10.42988440	      8.31317273	      1.89412189	    -17.07467468	    -11.66067276	    -18.57630577	     27.29851951	     46.67711448	      0.00000000	      0.00000000	     30.19025465	    -20.83464289	     -8.82482807	     78.33509570	     47.76377376	      0.00000000	      0.00000000
     10.10857143	     -4.79392067	     -4.77590236	    -10.93450781	      1.01370547	      0.92087519	      0.48652656	     24.94750200	      0.87519469	     -9.27227449	     18.44122850	     18.44122850	      5.65811672	      3.73017150	      1.53405927	      0.55583684	     -4.62080551	    -13.69012174	     16.62871737	     16.62871737	     20.77506433	    -14.24184891	      2.81782506	    -10.38444561	      8.29722425	      1.95605692	    -17.29186615	    -11.72956653	    -18.73462862	     27.72459977	     46.66428644	      0.00000000	      0.00000000	     31.04240048	    -21.08468606	     -9.27092484	     79.56541586	     47.82825868	      0.00000000	      0.00000000
     10.12750000	     -4.96840254	     -4.77786765	    -11.13416446	      1.01532849	      0.91965318	      0.49134106	     25.12586264	      1.15733528	     -9.29604248	     18.52484324	     18.52484324	      5.48358971	      4.14405442	      1.37265239	      0.00124478	     -4.84971776	    -13.94618897	     16.38239618	     16.38239618	     20.91354125	    -14.15381094	      2.73802277	    -10.15974912	      8.35864893	      1.99865565	    -17.14416743	    -11.86380958	    -18.78372375	     27.87284343	     46.66224253	      0.00000000	      0.00000000	     31.98400562	    -21.42369452	     -9.53018453	     80.11585394	     47.86303873	      0.00000000	      0.00000000
